<svg width="100" height="18" viewBox="0 0 100 18" fill="none" xmlns="http://www.w3.org/2000/svg">
<line y1="9.5" x2="40" y2="9.5" stroke="black"/>
<line x1="60" y1="9.5" x2="100" y2="9.5" stroke="black"/>
<path d="M47.4744 14.1705C46.7358 14.1705 46.0877 13.9947 45.5302 13.6431C44.9762 13.2915 44.543 12.7997 44.2305 12.1676C43.9215 11.5355 43.767 10.7969 43.767 9.9517C43.767 9.09943 43.9215 8.35547 44.2305 7.71982C44.543 7.08416 44.9762 6.59055 45.5302 6.23899C46.0877 5.88743 46.7358 5.71165 47.4744 5.71165C48.2131 5.71165 48.8594 5.88743 49.4134 6.23899C49.9709 6.59055 50.4041 7.08416 50.7131 7.71982C51.0256 8.35547 51.1818 9.09943 51.1818 9.9517C51.1818 10.7969 51.0256 11.5355 50.7131 12.1676C50.4041 12.7997 49.9709 13.2915 49.4134 13.6431C48.8594 13.9947 48.2131 14.1705 47.4744 14.1705ZM47.4744 13.0412C48.0355 13.0412 48.4972 12.8974 48.8594 12.6097C49.2216 12.3221 49.4897 11.9439 49.6637 11.4751C49.8377 11.0064 49.9247 10.4986 49.9247 9.9517C49.9247 9.40483 49.8377 8.89524 49.6637 8.42294C49.4897 7.95064 49.2216 7.56889 48.8594 7.2777C48.4972 6.98651 48.0355 6.84091 47.4744 6.84091C46.9134 6.84091 46.4517 6.98651 46.0895 7.2777C45.7273 7.56889 45.4592 7.95064 45.2852 8.42294C45.1112 8.89524 45.0241 9.40483 45.0241 9.9517C45.0241 10.4986 45.1112 11.0064 45.2852 11.4751C45.4592 11.9439 45.7273 12.3221 46.0895 12.6097C46.4517 12.8974 46.9134 13.0412 47.4744 13.0412ZM53.1008 14V5.81818H54.3153V7.05398H54.4005C54.5496 6.64915 54.8195 6.32067 55.2101 6.06854C55.6008 5.81641 56.0411 5.69034 56.5312 5.69034C56.6235 5.69034 56.7389 5.69212 56.8774 5.69567C57.0159 5.69922 57.1207 5.70455 57.1917 5.71165V6.99006C57.1491 6.9794 57.0514 6.96342 56.8987 6.94212C56.7496 6.91726 56.5915 6.90483 56.4246 6.90483C56.0269 6.90483 55.6718 6.98828 55.3593 7.15518C55.0503 7.31854 54.8053 7.54581 54.6242 7.837C54.4466 8.12464 54.3579 8.45312 54.3579 8.82244V14H53.1008Z" fill="black"/>
</svg>
