<svg xmlns="http://www.w3.org/2000/svg" id="camera" x="0" y="0" version="1.1" viewBox="0 0 29 29" xml:space="preserve"><path d="M25 25.25H4c-1.654 0-3-1.346-3-3v-12c0-1.654 1.346-3 3-3h3.279l.316-.949a2.997 2.997 0 0 1 2.846-2.051h8.117c1.293 0 2.437.824 2.846 2.051l.316.949H25c1.654 0 3 1.346 3 3v12c0 1.654-1.346 3-3 3zm-21-16a1 1 0 0 0-1 1v12a1 1 0 0 0 1 1h21a1 1 0 0 0 1-1v-12a1 1 0 0 0-1-1h-3.279c-.862 0-1.625-.55-1.897-1.368l-.315-.948a1.001 1.001 0 0 0-.949-.684h-8.117a.998.998 0 0 0-.949.684l-.318.949A1.996 1.996 0 0 1 7.279 9.25H4z"></path><path d="M14.5 22.25c-3.032 0-5.5-2.468-5.5-5.5s2.468-5.5 5.5-5.5 5.5 2.468 5.5 5.5-2.468 5.5-5.5 5.5zm0-9c-1.93 0-3.5 1.57-3.5 3.5s1.57 3.5 3.5 3.5 3.5-1.57 3.5-3.5-1.57-3.5-3.5-3.5z"></path><circle cx="20.5" cy="11.25" r="1"></circle><path d="M5.5 4.75H4a.5.5 0 0 0 0 1h1.5a.5.5 0 0 0 0-1z"></path><path d="M5.5 6.25H4a1 1 0 0 1 0-2h1.5a1 1 0 0 1 0 2zm-1.5-1h1.5H4z"></path></svg>