<svg xmlns="http://www.w3.org/2000/svg" enable-background="new 0 0 50 50" viewBox="0 0 50 50" id="milestone"><path fill="#010101" d="M9.6,47.5V48c0,0.5-0.4,1-1,1H2c-0.6,0-1-0.5-1-1v-0.5c0-2,1.4-3.7,3.3-4.2V24.7c0-0.6,0.4-1,1-1s1,0.4,1,1
		v1.2h11.8c0.6,0,1,0.4,1,1c0,0.3-0.1,0.5-0.3,0.7l-3,3.5l3,3.5c0.2,0.2,0.3,0.4,0.3,0.7c0,0.6-0.4,1-1,1H6.3v7.1
		C8.2,43.8,9.6,45.5,9.6,47.5z"></path><path fill="#010101" d="M36.4 29.6c-.7 2-2.9 1.3-8.7 2.4-.6.1-1 .4-1.3.9-.3.5-.3 1.1-.1 1.6l2.1 4.5c.5 1.1.5 2.3-.1 3.3-.5 1-1.5 1.8-2.6 2l-14 2.8c-.1 0-.1 0-.2 0-.5 0-.9-.3-1-.8-.1-.5.2-1.1.8-1.2l14-2.8c.5-.1 1-.4 1.2-.9.3-.5.3-1 0-1.5l-2.1-4.5C24 34.3 24 33 24.6 32c.6-1.1 1.6-1.8 2.8-1.9l6.9-1c.2 0 .2-.2.1-.3l-4-4.7c-.5-.5-.6-1.3-.4-2 .2-.7.7-1.3 1.4-1.5L33 20c.5-.2 1.1.1 1.3.6.2.5-.1 1.1-.6 1.3l-1.5.5c-.1 0-.1.1-.1.1 0 0 0 .1 0 .2C35 26.7 37.1 27.6 36.4 29.6zM48.7 9.4c.2.2.3.4.3.7 0 .5-.4 1-1 1 0 0 0 0 0 0s0 0 0 0h-8.9v4c1.5.4 2.5 1.8 2.5 3.4v.4c0 .6-.4 1-1 1h-5.1c-.6 0-1-.4-1-1v-.4c0-1.6 1.1-3 2.5-3.4V2c0-.6.4-1 1-1 .6 0 1 .4 1 1v.7H48c.6 0 1 .5 1 1 0 .3-.1.5-.3.7l-2.2 2.5L48.7 9.4z"></path></svg>